<svg id="Layer_1" data-name="Layer 1" xmlns="http://www.w3.org/2000/svg" viewBox="0 0 515 515"><defs><style>.cls-1{fill:#fff;}</style></defs><path class="cls-1" d="M290,383l-5.48-.52a66.29,66.29,0,0,1-42.24-20.79A63.93,63.93,0,0,1,225,318V132l5.48.52a66.29,66.29,0,0,1,42.24,20.79A63.93,63.93,0,0,1,290,197ZM235,143.26V318c0,26.48,19,48.69,45,53.7V197C280,170.48,261,148.27,235,143.26Z"/><polygon class="cls-1" points="393.74 254.66 393.74 116.55 382.3 106.55 382.3 244.27 393.74 254.66"/><path class="cls-1" d="M382.3,257.63v45.86q0,54.79-25.72,80.76a82.26,82.26,0,0,1-27.95,18.52V199.23q0-36.37-13.26-59.51a81.8,81.8,0,0,0-23.49-26.41v12.76c.74.68,1.48,1.36,2.19,2.08q23.13,23.39,23.12,70.13v208.3a120.61,120.61,0,0,1-30.51,3.65q-32.13,0-53.17-13.29v11c.74.38,1.48.75,2.24,1.1q22.86,10.62,50.93,10.62,40,0,63.66-16.29t32-45.58l.52,58.57,10.91-10V268Z"/><polygon class="cls-1" points="121.27 260.12 121.27 398.45 132.7 408.45 132.7 270.51 121.27 260.12"/><path class="cls-1" d="M279.25,106q-22.86-10.62-50.93-10.62-40,0-63.66,16.29t-32,45.58l-.52-58.57-10.92,10V246.76l11.44,10.39V211.51q0-54.8,25.72-80.76a82.43,82.43,0,0,1,28-18.53V315.77q0,36.38,13.26,59.51a81.8,81.8,0,0,0,23.49,26.41V388.93c-.74-.68-1.48-1.36-2.19-2.08q-23.13-23.39-23.12-70.14V108.42a120.61,120.61,0,0,1,30.51-3.65q32.13,0,53.17,13.29V107C280.75,106.67,280,106.3,279.25,106Z"/><path class="cls-1" d="M257.5,70.31,256,69.54c-12.71-6.57-20.6-18.85-20.6-32S243.3,12,256,5.46l1.49-.77,1.49.77c12.71,6.57,20.6,18.85,20.6,32S271.7,63,259,69.54Zm0-58.26c-9.66,5.6-15.59,15.21-15.59,25.45S247.84,57.34,257.5,63c9.66-5.61,15.59-15.22,15.59-25.45S267.16,17.65,257.5,12.05Z"/><ellipse class="cls-1" cx="300.5" cy="53.04" rx="17.72" ry="11.45" transform="translate(50.51 228.02) rotate(-45)"/><path class="cls-1" d="M294.81,69.89A25.72,25.72,0,0,1,287,68.66l-1.6-.51-.51-1.6c-2.79-8.74-.78-17.9,5.23-23.91s15.16-8,23.9-5.23l1.6.51.51,1.6c2.79,8.74.78,17.9-5.23,23.91A22.56,22.56,0,0,1,294.81,69.89Zm-4.19-7a16.74,16.74,0,0,0,15.68-4.09,16.74,16.74,0,0,0,4.08-15.67,16.76,16.76,0,0,0-15.68,4.08A16.75,16.75,0,0,0,290.62,62.92Z"/><ellipse class="cls-1" cx="214.5" cy="53.04" rx="11.45" ry="17.72" transform="translate(25.32 167.21) rotate(-45)"/><path class="cls-1" d="M220.19,69.89a22.56,22.56,0,0,1-16.08-6.46c-6-6-8-15.17-5.23-23.91l.51-1.6,1.6-.51c8.74-2.78,17.9-.77,23.9,5.23s8,15.17,5.23,23.91l-.51,1.6-1.6.51A25.72,25.72,0,0,1,220.19,69.89ZM204.62,43.16a16.74,16.74,0,0,0,4.08,15.67,16.74,16.74,0,0,0,15.68,4.09,16.75,16.75,0,0,0-4.08-15.68A16.76,16.76,0,0,0,204.62,43.16Z"/><path class="cls-1" d="M57.5,279.59c-13.19,0-25.47-7.89-32-20.6l-.77-1.49.77-1.49c6.57-12.71,18.85-20.6,32-20.6S83,243.3,89.54,256l.77,1.49L89.54,259C83,271.7,70.69,279.59,57.5,279.59ZM32.05,257.5c5.6,9.66,15.22,15.59,25.45,15.59S77.34,267.16,83,257.5c-5.61-9.66-15.22-15.59-25.45-15.59S37.65,247.84,32.05,257.5Z"/><ellipse class="cls-1" cx="73.04" cy="214.5" rx="11.45" ry="17.72" transform="translate(-130.28 114.47) rotate(-45)"/><path class="cls-1" d="M78.73,231.36a22.6,22.6,0,0,1-16.09-6.47c-6-6-8-15.17-5.23-23.9l.51-1.6,1.6-.51c8.74-2.78,17.9-.78,23.91,5.23s8,15.16,5.23,23.9l-.51,1.6-1.6.51A25.74,25.74,0,0,1,78.73,231.36ZM63.16,204.62a16,16,0,0,0,19.76,19.76,16,16,0,0,0-19.76-19.76Z"/><ellipse class="cls-1" cx="73.04" cy="300.5" rx="17.72" ry="11.45" transform="translate(-191.09 139.66) rotate(-45)"/><path class="cls-1" d="M67.35,317.36a25.85,25.85,0,0,1-7.83-1.24l-1.6-.51-.51-1.6c-2.78-8.74-.77-17.9,5.23-23.9s15.17-8,23.91-5.23l1.6.51.51,1.6c2.78,8.74.78,17.9-5.23,23.9A22.57,22.57,0,0,1,67.35,317.36Zm-4.19-7a16,16,0,0,0,19.76-19.76,16,16,0,0,0-19.76,19.76Z"/><path class="cls-1" d="M457.5,279.59c-13.19,0-25.47-7.89-32-20.6l-.77-1.49.77-1.49c6.57-12.71,18.85-20.6,32-20.6s25.47,7.89,32,20.6l.77,1.49-.77,1.49C483,271.7,470.69,279.59,457.5,279.59ZM432.05,257.5c5.6,9.66,15.21,15.59,25.45,15.59s19.85-5.93,25.45-15.59c-5.6-9.66-15.21-15.59-25.45-15.59S437.65,247.84,432.05,257.5Z"/><ellipse class="cls-1" cx="441.96" cy="214.5" rx="17.72" ry="11.45" transform="translate(-22.23 375.34) rotate(-45)"/><path class="cls-1" d="M436.27,231.36a25.74,25.74,0,0,1-7.82-1.24l-1.6-.51-.51-1.6c-2.78-8.74-.78-17.9,5.23-23.9s15.17-8,23.9-5.23l1.61.51.51,1.6c2.78,8.73.77,17.9-5.23,23.9A22.6,22.6,0,0,1,436.27,231.36Zm-4.19-7a16,16,0,0,0,19.76-19.76,16,16,0,0,0-19.76,19.76Z"/><ellipse class="cls-1" cx="441.96" cy="300.5" rx="11.45" ry="17.72" transform="translate(-83.04 400.53) rotate(-45)"/><path class="cls-1" d="M447.65,317.36a22.57,22.57,0,0,1-16.08-6.47c-6-6-8-15.16-5.23-23.9l.51-1.6,1.6-.51c8.74-2.79,17.9-.78,23.91,5.23s8,15.16,5.23,23.9l-.51,1.6-1.61.51A25.74,25.74,0,0,1,447.65,317.36Zm-15.57-26.74a16,16,0,0,0,19.76,19.76,16,16,0,0,0-19.76-19.76Z"/><path class="cls-1" d="M257.5,510.31l-1.49-.77c-12.71-6.57-20.6-18.85-20.6-32s7.89-25.47,20.6-32l1.49-.77,1.49.77c12.71,6.57,20.6,18.85,20.6,32s-7.89,25.47-20.6,32Zm0-58.26c-9.66,5.6-15.59,15.21-15.59,25.45s5.93,19.85,15.59,25.45c9.66-5.6,15.59-15.21,15.59-25.45S267.16,457.65,257.5,452.05Z"/><ellipse class="cls-1" cx="300.5" cy="461.96" rx="11.45" ry="17.72" transform="translate(-238.64 347.79) rotate(-45)"/><path class="cls-1" d="M306.19,478.82a22.59,22.59,0,0,1-16.08-6.46c-6-6-8-15.17-5.23-23.91l.51-1.6,1.6-.51c8.73-2.78,17.89-.78,23.9,5.23s8,15.17,5.23,23.9l-.51,1.61-1.6.51A26,26,0,0,1,306.19,478.82Zm-15.57-26.74a16,16,0,0,0,19.76,19.76,16,16,0,0,0-19.76-19.76Z"/><ellipse class="cls-1" cx="214.5" cy="461.96" rx="17.72" ry="11.45" transform="translate(-263.83 286.98) rotate(-45)"/><path class="cls-1" d="M208.81,478.82a26,26,0,0,1-7.82-1.23l-1.6-.51-.51-1.61c-2.79-8.73-.78-17.89,5.23-23.9s15.16-8,23.9-5.23l1.6.51.51,1.6c2.79,8.74.78,17.9-5.23,23.91A22.61,22.61,0,0,1,208.81,478.82Zm-4.19-7a16,16,0,0,0,19.76-19.76,16,16,0,0,0-19.76,19.76Z"/></svg>